<svg width="29" height="29" viewBox="0 0 29 29" fill="none" xmlns="http://www.w3.org/2000/svg">
<circle cx="14.5" cy="14.5" r="13.25" stroke="white" stroke-width="2.5"/>
<path d="M13.0455 16.5114V16.3182C13.0492 15.6553 13.108 15.1269 13.2216 14.733C13.339 14.339 13.5095 14.0208 13.733 13.7784C13.9564 13.536 14.2254 13.3163 14.5398 13.1193C14.7746 12.9678 14.9848 12.8106 15.1705 12.6477C15.3561 12.4848 15.5038 12.3049 15.6136 12.108C15.7235 11.9072 15.7784 11.6837 15.7784 11.4375C15.7784 11.1761 15.7159 10.947 15.5909 10.75C15.4659 10.553 15.2973 10.4015 15.0852 10.2955C14.8769 10.1894 14.6458 10.1364 14.392 10.1364C14.1458 10.1364 13.9129 10.1913 13.6932 10.3011C13.4735 10.4072 13.2936 10.5663 13.1534 10.7784C13.0133 10.9867 12.9375 11.2462 12.9261 11.5568H10.608C10.6269 10.7992 10.8087 10.1742 11.1534 9.68182C11.4981 9.18561 11.9545 8.81629 12.5227 8.57386C13.0909 8.32765 13.7178 8.20455 14.4034 8.20455C15.1572 8.20455 15.8239 8.32955 16.4034 8.57955C16.983 8.82576 17.4375 9.18371 17.767 9.65341C18.0966 10.1231 18.2614 10.6894 18.2614 11.3523C18.2614 11.7955 18.1875 12.1894 18.0398 12.5341C17.8958 12.875 17.6932 13.178 17.4318 13.4432C17.1705 13.7045 16.8617 13.9413 16.5057 14.1534C16.2064 14.3314 15.9602 14.517 15.767 14.7102C15.5777 14.9034 15.4356 15.1269 15.3409 15.3807C15.25 15.6345 15.2027 15.947 15.1989 16.3182V16.5114H13.0455ZM14.1705 20.1477C13.7917 20.1477 13.4678 20.0152 13.1989 19.75C12.9337 19.4811 12.803 19.1591 12.8068 18.7841C12.803 18.4129 12.9337 18.0947 13.1989 17.8295C13.4678 17.5644 13.7917 17.4318 14.1705 17.4318C14.5303 17.4318 14.8466 17.5644 15.1193 17.8295C15.392 18.0947 15.5303 18.4129 15.5341 18.7841C15.5303 19.0341 15.464 19.2633 15.3352 19.4716C15.2102 19.6761 15.0455 19.8409 14.8409 19.9659C14.6364 20.0871 14.4129 20.1477 14.1705 20.1477Z" fill="white"/>
</svg>
